<svg width="20" height="20" viewBox="0 0 20 20" fill="none" xmlns="http://www.w3.org/2000/svg">
<g clip-path="url(#clip0_10218_16480)">
<path d="M10.0008 19.7008C15.3579 19.7008 19.7008 15.3579 19.7008 10.0008C19.7008 4.64362 15.3579 0.300781 10.0008 0.300781C4.64362 0.300781 0.300781 4.64362 0.300781 10.0008C0.300781 15.3579 4.64362 19.7008 10.0008 19.7008Z" fill="url(#paint0_linear_10218_16480)"/>
<path d="M14.2442 13.8642L10.9642 5.93422C10.7792 5.52422 10.5042 5.32422 10.1417 5.32422H9.85172C9.48922 5.32422 9.21422 5.52422 9.02922 5.93422L7.60172 9.38922H6.52172C6.19922 9.39172 5.93672 9.65172 5.93422 9.97672V9.98422C5.93672 10.3067 6.19922 10.5692 6.52172 10.5717H7.10172L5.73922 13.8642C5.71422 13.9367 5.69922 14.0117 5.69922 14.0892C5.69922 14.2742 5.75672 14.4192 5.85922 14.5317C5.96172 14.6442 6.10922 14.6992 6.29422 14.6992C6.41672 14.6967 6.53422 14.6592 6.63172 14.5867C6.73672 14.5142 6.80922 14.4092 6.86672 14.2892L8.36672 10.5692H9.40672C9.72922 10.5667 9.99172 10.3067 9.99422 9.98172V9.96672C9.99172 9.64422 9.72922 9.38172 9.40672 9.37922H8.85172L9.99672 6.52672L13.1167 14.2867C13.1742 14.4067 13.2467 14.5117 13.3517 14.5842C13.4492 14.6567 13.5692 14.6942 13.6892 14.6967C13.8742 14.6967 14.0192 14.6417 14.1242 14.5292C14.2292 14.4167 14.2842 14.2717 14.2842 14.0867C14.2867 14.0117 14.2742 13.9342 14.2442 13.8642Z" fill="white"/>
</g>
<defs>
<linearGradient id="paint0_linear_10218_16480" x1="17.233" y1="3.91544" x2="2.79936" y2="16.0598" gradientUnits="userSpaceOnUse">
<stop stop-color="#B6509E"/>
<stop offset="1" stop-color="#2EBAC6"/>
</linearGradient>
<clipPath id="clip0_10218_16480">
<rect width="20" height="20" fill="white"/>
</clipPath>
</defs>
</svg>
