<svg width="32" height="32" viewBox="0 0 32 32" fill="none" xmlns="http://www.w3.org/2000/svg">
<g clip-path="url(#clip0_10008_3367)">
<path d="M16.0005 31.5205C24.5719 31.5205 31.5205 24.5719 31.5205 16.0005C31.5205 7.42901 24.5719 0.480469 16.0005 0.480469C7.42901 0.480469 0.480469 7.42901 0.480469 16.0005C0.480469 24.5719 7.42901 31.5205 16.0005 31.5205Z" fill="url(#paint0_linear_10008_3367)"/>
<path d="M22.7931 22.1835L17.5451 9.49553C17.2491 8.83953 16.8091 8.51953 16.2291 8.51953H15.7651C15.1851 8.51953 14.7451 8.83953 14.4491 9.49553L12.1651 15.0235H10.4371C9.92109 15.0275 9.50109 15.4435 9.49709 15.9635V15.9755C9.50109 16.4915 9.92109 16.9115 10.4371 16.9155H11.3651L9.18509 22.1835C9.14509 22.2995 9.12109 22.4195 9.12109 22.5435C9.12109 22.8395 9.21309 23.0715 9.37709 23.2515C9.54109 23.4315 9.77709 23.5195 10.0731 23.5195C10.2691 23.5155 10.4571 23.4555 10.6131 23.3395C10.7811 23.2235 10.8971 23.0555 10.9891 22.8635L13.3891 16.9115H15.0531C15.5691 16.9075 15.9891 16.4915 15.9931 15.9715V15.9475C15.9891 15.4315 15.5691 15.0115 15.0531 15.0075H14.1651L15.9971 10.4435L20.9891 22.8595C21.0811 23.0515 21.1971 23.2195 21.3651 23.3355C21.5211 23.4515 21.7131 23.5115 21.9051 23.5155C22.2011 23.5155 22.4331 23.4275 22.6011 23.2475C22.7691 23.0675 22.8571 22.8355 22.8571 22.5395C22.8611 22.4195 22.8411 22.2955 22.7931 22.1835Z" fill="#FCFCFD"/>
</g>
<defs>
<linearGradient id="paint0_linear_10008_3367" x1="27.572" y1="6.26392" x2="4.4782" y2="25.695" gradientUnits="userSpaceOnUse">
<stop stop-color="#B6509E"/>
<stop offset="1" stop-color="#2EBAC6"/>
</linearGradient>
<clipPath id="clip0_10008_3367">
<rect width="32" height="32" fill="white"/>
</clipPath>
</defs>
</svg>
