<svg width="20" height="20" viewBox="0 0 20 20" fill="none" xmlns="http://www.w3.org/2000/svg">
<path d="M9.47656 6.32864C9.47656 6.03927 9.71114 5.80469 10.0005 5.80469H14.1921C14.4815 5.80469 14.7161 6.03927 14.7161 6.32864C14.7161 6.61801 14.4815 6.85259 14.1921 6.85259H10.0005C9.71114 6.85259 9.47656 6.61801 9.47656 6.32864ZM9.47656 8.42445C9.47656 8.13508 9.71114 7.9005 10.0005 7.9005H14.1921C14.4815 7.9005 14.7161 8.13508 14.7161 8.42445C14.7161 8.71382 14.4815 8.9484 14.1921 8.9484H10.0005C9.71114 8.9484 9.47656 8.71382 9.47656 8.42445ZM9.47656 11.5682C9.47656 11.2788 9.71114 11.0442 10.0005 11.0442H14.1921C14.4815 11.0442 14.7161 11.2788 14.7161 11.5682C14.7161 11.8575 14.4815 12.0921 14.1921 12.0921H10.0005C9.71114 12.0921 9.47656 11.8575 9.47656 11.5682ZM9.47656 13.664C9.47656 13.3746 9.71114 13.14 10.0005 13.14H14.1921C14.4815 13.14 14.7161 13.3746 14.7161 13.664C14.7161 13.9533 14.4815 14.1879 14.1921 14.1879H10.0005C9.71114 14.1879 9.47656 13.9533 9.47656 13.664Z" fill="#FCFCFD"/>
<path fill-rule="evenodd" clip-rule="evenodd" d="M5.28516 6.83694C5.28516 6.26684 5.74731 5.80469 6.31741 5.80469H7.39662C7.96672 5.80469 8.42887 6.26684 8.42887 6.83694V13.1551C8.42887 13.7252 7.96672 14.1873 7.39662 14.1873H6.31741C5.74731 14.1873 5.28516 13.7252 5.28516 13.1551V6.83694ZM6.33306 13.142V6.85259H7.38096V13.142H6.33306Z" fill="#2FA766"/>
</svg>
