<svg width="32" height="32" viewBox="0 0 32 32" fill="none" xmlns="http://www.w3.org/2000/svg">
<g clip-path="url(#clip0_10313_17210)">
<path d="M16 32C24.8366 32 32 24.8366 32 16C32 7.16344 24.8366 0 16 0C7.16344 0 0 7.16344 0 16C0 24.8366 7.16344 32 16 32Z" fill="#328332"/>
<path d="M15.989 16.553L9.268 15.976L15.988 12.174V16.553H15.989ZM15.989 21.013V27.953C13.652 24.315 11.076 20.311 9 17.07C11.45 18.45 14.008 19.893 15.989 21.014V21.013ZM15.989 10.945L9 14.845L15.989 4V10.945Z" fill="#FCFCFD"/>
<path d="M22.7093 15.976L15.9883 16.553V12.174L22.7083 15.976H22.7093ZM15.9883 21.014C17.9683 19.894 20.5253 18.45 22.9763 17.07C20.9003 20.312 18.3243 24.316 15.9883 27.952V21.014ZM15.9883 10.945V4L22.9763 14.845L15.9883 10.945Z" fill="white" fill-opacity="0.601"/>
<path opacity="0.2" fill-rule="evenodd" clip-rule="evenodd" d="M15.9883 16.5536L22.7083 15.9766L15.9883 19.7516V16.5536Z" fill="white"/>
<path opacity="0.603" fill-rule="evenodd" clip-rule="evenodd" d="M15.9866 16.5536L9.26562 15.9766L15.9866 19.7516V16.5536Z" fill="white"/>
</g>
<defs>
<clipPath id="clip0_10313_17210">
<rect width="32" height="32" fill="white"/>
</clipPath>
</defs>
</svg>
