<svg width="32" height="32" viewBox="0 0 32 32" fill="none" xmlns="http://www.w3.org/2000/svg">
<g clip-path="url(#clip0_10008_3317)">
<path fill-rule="evenodd" clip-rule="evenodd" d="M15.9375 0C19.102 0 22.1954 0.938384 24.8266 2.69649C27.4578 4.45459 29.5086 6.95345 30.7196 9.87707C31.9306 12.8007 32.2474 16.0177 31.6301 19.1214C31.0127 22.2251 29.4888 25.0761 27.2512 27.3137C25.0136 29.5514 22.1626 31.0752 19.0589 31.6926C15.9552 32.3099 12.7382 31.9931 9.81457 30.7821C6.89095 29.5711 4.39209 27.5203 2.63399 24.8891C0.875884 22.2579 -0.0625 19.1645 -0.0625 16C-0.0625 11.7565 1.62321 7.68687 4.62379 4.68629C7.62437 1.68571 11.694 0 15.9375 0V0Z" fill="white"/>
<path fill-rule="evenodd" clip-rule="evenodd" d="M15.9365 3.4375L20.1459 9.72695L24.3554 16.0179L15.9365 20.2593L7.51758 16.0019L11.727 9.71095L15.9365 3.4375ZM15.9365 21.9539L7.98449 17.711L15.9365 28.5662L23.8885 17.711L15.9365 21.9539Z" fill="#FCFCFD"/>
<path fill-rule="evenodd" clip-rule="evenodd" d="M15.9375 3.4375L20.147 9.71095L24.3564 16.0019L15.9375 12.8237V3.4375Z" fill="#343434"/>
<path fill-rule="evenodd" clip-rule="evenodd" d="M15.9375 21.9538L23.9055 17.7109L15.9375 28.5822V21.9538Z" fill="#313131"/>
<path fill-rule="evenodd" clip-rule="evenodd" d="M15.9375 12.8203L24.3564 15.9985L15.9375 20.2399V12.8203Z" fill="#151515"/>
<path fill-rule="evenodd" clip-rule="evenodd" d="M15.9365 3.4375L11.727 9.71095L7.51758 16.0019L15.9365 12.8237V3.4375Z" fill="#8C8C8C"/>
<path fill-rule="evenodd" clip-rule="evenodd" d="M15.9383 21.9538L7.98633 17.7109L15.9383 28.5822V21.9538Z" fill="#8A8A8A"/>
<path fill-rule="evenodd" clip-rule="evenodd" d="M15.9365 12.8203L7.51758 15.9985L15.9365 20.2399V12.8203Z" fill="#353535"/>
</g>
<defs>
<clipPath id="clip0_10008_3317">
<rect width="32" height="32" fill="white"/>
</clipPath>
</defs>
</svg>
