<svg width="40" height="30" viewBox="0 0 40 30" fill="none" xmlns="http://www.w3.org/2000/svg">
<g clip-path="url(#clip0_10008_39462)">
<path fill-rule="evenodd" clip-rule="evenodd" d="M0 0H40V30H0V0Z" fill="white"/>
<path fill-rule="evenodd" clip-rule="evenodd" d="M0 0H13.3313V30H0V0Z" fill="#002654"/>
<path fill-rule="evenodd" clip-rule="evenodd" d="M26.668 0H39.9992V30H26.668V0Z" fill="#CE1126"/>
</g>
<defs>
<clipPath id="clip0_10008_39462">
<path d="M0 12C0 6.34315 0 3.51472 1.75736 1.75736C3.51472 0 6.34315 0 12 0H28C33.6569 0 36.4853 0 38.2426 1.75736C40 3.51472 40 6.34315 40 12V18C40 23.6569 40 26.4853 38.2426 28.2426C36.4853 30 33.6569 30 28 30H12C6.34315 30 3.51472 30 1.75736 28.2426C0 26.4853 0 23.6569 0 18V12Z" fill="white"/>
</clipPath>
</defs>
</svg>
