<svg width="343" height="32" viewBox="0 0 343 32" fill="none" xmlns="http://www.w3.org/2000/svg">
<path d="M26.2147 19.1825L12.7799 27.4038C10.1066 29.0398 6.66797 27.121 6.66797 23.993V8.00766C6.66797 4.87966 10.1066 2.96118 12.7799 4.59718L26.2147 12.8185C28.5947 14.2759 28.5947 17.7265 26.2147 19.1825Z" fill="#FCFCFD"/>
<path d="M44.0156 10.9987V20.9987M50.0391 7.66536V24.332M56.0625 4.33203V27.6654M62.0859 7.66536V24.332M68.1094 10.9987V20.9987" stroke="#1A80E6" stroke-width="1.98051" stroke-linecap="round" stroke-linejoin="round"/>
<path d="M76.1406 10.9987V20.9987M82.1641 7.66536V24.332M88.1875 4.33203V27.6654M94.2109 7.66536V24.332M100.234 10.9987V20.9987" stroke="#1A80E6" stroke-width="1.98051" stroke-linecap="round" stroke-linejoin="round"/>
<path d="M108.266 10.9987V20.9987M114.289 7.66536V24.332M120.313 4.33203V27.6654M126.336 7.66536V24.332M132.359 10.9987V20.9987" stroke="#1A80E6" stroke-width="1.98051" stroke-linecap="round" stroke-linejoin="round"/>
<path d="M140.391 10.9987V20.9987M146.414 7.66536V24.332M152.438 4.33203V27.6654M158.461 7.66536V24.332M164.484 10.9987V20.9987" stroke="#FCFCFD" stroke-width="1.98051" stroke-linecap="round" stroke-linejoin="round"/>
<path d="M172.516 10.9987V20.9987M178.539 7.66536V24.332M184.563 4.33203V27.6654M190.586 7.66536V24.332M196.609 10.9987V20.9987" stroke="#FCFCFD" stroke-width="1.98051" stroke-linecap="round" stroke-linejoin="round"/>
<path d="M204.641 10.9987V20.9987M210.664 7.66536V24.332M216.688 4.33203V27.6654M222.711 7.66536V24.332M228.734 10.9987V20.9987" stroke="#FCFCFD" stroke-width="1.98051" stroke-linecap="round" stroke-linejoin="round"/>
<path d="M236.766 10.9987V20.9987M242.789 7.66536V24.332M248.813 4.33203V27.6654M254.836 7.66536V24.332M260.859 10.9987V20.9987" stroke="#FCFCFD" stroke-width="1.98051" stroke-linecap="round" stroke-linejoin="round"/>
<path d="M268.891 10.9987V20.9987M274.914 7.66536V24.332M280.938 4.33203V27.6654M286.961 7.66536V24.332M292.984 10.9987V20.9987" stroke="#FCFCFD" stroke-width="1.98051" stroke-linecap="round" stroke-linejoin="round"/>
<path d="M306.232 21.5V20.184H308.976V12.876H308.864L306.596 15.298L305.63 14.43L308.122 11.728H310.53V20.184H312.91V21.5H306.232ZM320.969 21.5H314.333V19.988L317.455 17.202C317.949 16.754 318.327 16.3293 318.589 15.928C318.859 15.5173 318.995 15.088 318.995 14.64V14.458C318.995 13.982 318.85 13.6087 318.561 13.338C318.281 13.0673 317.898 12.932 317.413 12.932C317.142 12.932 316.904 12.974 316.699 13.058C316.503 13.1327 316.33 13.24 316.181 13.38C316.031 13.52 315.905 13.6833 315.803 13.87C315.709 14.0567 315.635 14.2573 315.579 14.472L314.193 13.94C314.295 13.632 314.435 13.338 314.613 13.058C314.79 12.7687 315.014 12.512 315.285 12.288C315.555 12.064 315.873 11.8867 316.237 11.756C316.61 11.6253 317.044 11.56 317.539 11.56C318.033 11.56 318.477 11.6347 318.869 11.784C319.261 11.924 319.587 12.1247 319.849 12.386C320.119 12.638 320.325 12.9413 320.465 13.296C320.605 13.6507 320.675 14.038 320.675 14.458C320.675 14.85 320.614 15.214 320.493 15.55C320.371 15.886 320.203 16.2033 319.989 16.502C319.774 16.8007 319.522 17.0853 319.233 17.356C318.953 17.6267 318.654 17.902 318.337 18.182L316.041 20.156H320.969V21.5ZM323.959 21.668C323.614 21.668 323.357 21.5793 323.189 21.402C323.021 21.2153 322.937 20.9867 322.937 20.716V20.506C322.937 20.2353 323.021 20.0113 323.189 19.834C323.357 19.6473 323.614 19.554 323.959 19.554C324.304 19.554 324.561 19.6473 324.729 19.834C324.897 20.0113 324.981 20.2353 324.981 20.506V20.716C324.981 20.9867 324.897 21.2153 324.729 21.402C324.561 21.5793 324.304 21.668 323.959 21.668ZM323.959 16.166C323.614 16.166 323.357 16.0773 323.189 15.9C323.021 15.7133 322.937 15.4847 322.937 15.214V15.004C322.937 14.7333 323.021 14.5093 323.189 14.332C323.357 14.1453 323.614 14.052 323.959 14.052C324.304 14.052 324.561 14.1453 324.729 14.332C324.897 14.5093 324.981 14.7333 324.981 15.004V15.214C324.981 15.4847 324.897 15.7133 324.729 15.9C324.561 16.0773 324.304 16.166 323.959 16.166ZM329.791 15.746C330.398 15.746 330.846 15.62 331.135 15.368C331.424 15.1067 331.569 14.7753 331.569 14.374V14.276C331.569 13.828 331.429 13.4873 331.149 13.254C330.869 13.0113 330.491 12.89 330.015 12.89C329.548 12.89 329.152 12.9973 328.825 13.212C328.498 13.4173 328.223 13.7067 327.999 14.08L326.949 13.17C327.098 12.9553 327.266 12.75 327.453 12.554C327.64 12.358 327.859 12.19 328.111 12.05C328.363 11.9007 328.648 11.784 328.965 11.7C329.282 11.6067 329.646 11.56 330.057 11.56C330.514 11.56 330.939 11.616 331.331 11.728C331.723 11.84 332.059 12.008 332.339 12.232C332.619 12.4467 332.838 12.7127 332.997 13.03C333.156 13.338 333.235 13.688 333.235 14.08C333.235 14.388 333.184 14.668 333.081 14.92C332.988 15.172 332.852 15.396 332.675 15.592C332.507 15.7787 332.306 15.9327 332.073 16.054C331.849 16.1753 331.611 16.264 331.359 16.32V16.39C331.639 16.446 331.9 16.5393 332.143 16.67C332.395 16.7913 332.614 16.9547 332.801 17.16C332.988 17.356 333.132 17.594 333.235 17.874C333.347 18.1447 333.403 18.4573 333.403 18.812C333.403 19.2413 333.319 19.6333 333.151 19.988C332.983 20.3333 332.745 20.632 332.437 20.884C332.138 21.136 331.774 21.332 331.345 21.472C330.916 21.6027 330.44 21.668 329.917 21.668C329.46 21.668 329.058 21.6167 328.713 21.514C328.368 21.4207 328.06 21.2947 327.789 21.136C327.528 20.968 327.294 20.7813 327.089 20.576C326.893 20.3613 326.72 20.142 326.571 19.918L327.733 19.008C327.854 19.204 327.98 19.386 328.111 19.554C328.251 19.7127 328.405 19.8527 328.573 19.974C328.75 20.086 328.946 20.1747 329.161 20.24C329.385 20.3053 329.637 20.338 329.917 20.338C330.514 20.338 330.972 20.198 331.289 19.918C331.606 19.6287 331.765 19.232 331.765 18.728V18.63C331.765 18.126 331.597 17.7433 331.261 17.482C330.925 17.2207 330.449 17.09 329.833 17.09H328.797V15.746H329.791ZM338.718 21.668C338.111 21.668 337.584 21.556 337.136 21.332C336.688 21.0987 336.319 20.7673 336.03 20.338C335.74 19.9087 335.526 19.3813 335.386 18.756C335.246 18.1307 335.176 17.4167 335.176 16.614C335.176 15.8207 335.246 15.1113 335.386 14.486C335.526 13.8513 335.74 13.3193 336.03 12.89C336.319 12.4607 336.688 12.134 337.136 11.91C337.584 11.6767 338.111 11.56 338.718 11.56C339.931 11.56 340.822 12.0033 341.392 12.89C341.97 13.7767 342.26 15.018 342.26 16.614C342.26 18.21 341.97 19.4513 341.392 20.338C340.822 21.2247 339.931 21.668 338.718 21.668ZM338.718 20.324C339.054 20.324 339.338 20.2587 339.572 20.128C339.814 19.988 340.01 19.792 340.16 19.54C340.309 19.288 340.416 18.9893 340.482 18.644C340.547 18.2893 340.58 17.8973 340.58 17.468V15.76C340.58 15.3307 340.547 14.9433 340.482 14.598C340.416 14.2433 340.309 13.94 340.16 13.688C340.01 13.436 339.814 13.2447 339.572 13.114C339.338 12.974 339.054 12.904 338.718 12.904C338.382 12.904 338.092 12.974 337.85 13.114C337.616 13.2447 337.425 13.436 337.276 13.688C337.126 13.94 337.019 14.2433 336.954 14.598C336.888 14.9433 336.856 15.3307 336.856 15.76V17.468C336.856 17.8973 336.888 18.2893 336.954 18.644C337.019 18.9893 337.126 19.288 337.276 19.54C337.425 19.792 337.616 19.988 337.85 20.128C338.092 20.2587 338.382 20.324 338.718 20.324Z" fill="#FCFCFD"/>
</svg>
