<svg width="130" height="40" viewBox="0 0 130 40" fill="none" xmlns="http://www.w3.org/2000/svg">
<path d="M1 38.332H4.19797C4.99847 38.332 5.72186 37.8547 6.03674 37.1187L13.2809 20.1868C13.5958 19.4509 14.3192 18.9735 15.1197 18.9735H19.2423C19.6219 18.9735 19.9937 19.0816 20.3142 19.285L32.0571 26.7397C32.8324 27.2319 33.8432 27.1329 34.5082 26.4996L38.2032 22.9811C38.8979 22.3196 39.9643 22.2444 40.7448 22.8019L44.2229 25.2859C44.9367 25.7957 45.8994 25.7808 46.5972 25.2493L52.7525 20.5602C52.8856 20.4588 53.0309 20.3745 53.185 20.3093L58.9493 17.8697C59.4479 17.6587 59.8397 17.2545 60.0351 16.7496L64.7129 4.659C64.8973 4.18245 65.257 3.79455 65.7184 3.5749L70.7184 1.19429C71.7177 0.718483 72.9135 1.14482 73.3864 2.14553L79.0012 14.0269C79.1983 14.4439 79.5333 14.7799 79.9497 14.9782L90.762 20.1261C91.1459 20.3089 91.5782 20.3646 91.9959 20.285L97.9077 19.1592C98.5218 19.0422 99.0458 18.6449 99.3242 18.0852L104.095 8.49539C104.785 7.10746 106.724 6.99865 107.565 8.3006L111.231 13.9728C111.52 14.4201 111.975 14.7337 112.496 14.8439L117.445 15.891C118.081 16.0256 118.611 16.4609 118.868 17.0582L124.715 30.6686C125.031 31.4032 125.753 31.8792 126.553 31.8792H129" stroke="#777E90" stroke-width="2" stroke-linecap="round" stroke-linejoin="round"/>
</svg>
