<svg width="61" height="28" viewBox="0 0 61 28" fill="none" xmlns="http://www.w3.org/2000/svg">
<path d="M61 0L55.847 6.888C54.8624 8.2013 53.5749 9.26943 52.089 10.0058C50.603 10.7422 48.9604 11.1261 47.2943 11.1265H38.4916C36.8245 11.1264 35.1808 11.5102 33.6939 12.2468C32.2069 12.9834 30.9186 14.052 29.9333 15.366L21.0791 27.2023C20.215 28.3597 18.4028 28.237 17.714 26.9684L13.7109 19.6408L25.2414 4.24248C26.2256 2.92845 27.5129 1.85955 28.9988 1.12246C30.4848 0.385363 32.1276 0.000817429 33.794 0H61Z" fill="#1A80E6"/>
<path d="M39.6149 13.6278H47.9053L42.7508 20.5144C41.7664 21.8279 40.4791 22.8963 38.9933 23.633C37.5074 24.3697 35.8648 24.7538 34.1987 24.7544H25.9093L31.0628 17.8673C32.0473 16.5539 33.3346 15.4857 34.8204 14.7491C36.3063 14.0125 37.9488 13.6284 39.6149 13.6278Z" fill="#1A80E6"/>
<path d="M21.1417 5.78071L12.4695 17.3597L12.4472 17.315C12.3104 17.0478 12.1737 16.792 12.0314 16.5526L12.0141 16.5302C9.20706 11.9346 4.26455 13.1629 0.899385 15.3565C0.386986 15.6903 -0.228096 15.1002 0.0850367 14.5885L2.38575 10.8219C3.32689 9.28455 4.65994 8.01195 6.25475 7.12838C7.84955 6.24481 9.65159 5.78047 11.4849 5.78071H21.1417Z" fill="#1A80E6"/>
</svg>
