<svg width="32" height="32" viewBox="0 0 32 32" fill="none" xmlns="http://www.w3.org/2000/svg">
<g clip-path="url(#clip0_10008_3383)">
<path d="M15.9997 0C11.7718 0.0123329 7.7217 1.70207 4.7387 4.69815C1.7557 7.69424 0.0836943 11.7517 0.0898607 15.9796C0.0960272 20.2074 1.77986 24.26 4.77159 27.2474C7.76331 30.2347 11.8183 31.9127 16.0462 31.9127C20.2741 31.9127 24.3291 30.2347 27.3208 27.2474C30.3126 24.26 31.9964 20.2074 32.0026 15.9796C32.0087 11.7517 30.3367 7.69424 27.3537 4.69815C24.3707 1.70207 20.3206 0.0123329 16.0928 0L15.9997 0Z" fill="#345D9D"/>
<path d="M16.2909 16.3562L14.8814 21.0893H22.3811C22.4306 21.0868 22.4802 21.0947 22.5265 21.1126C22.5728 21.1299 22.6153 21.1561 22.6516 21.1897C22.6877 21.224 22.7168 21.265 22.7374 21.3104C22.7593 21.3558 22.7712 21.4054 22.7723 21.4558V21.5795L22.1192 23.8297C22.0913 23.9364 22.027 24.03 21.9374 24.0944C21.8487 24.1595 21.7404 24.1923 21.6305 24.1875H10.1541L12.0771 17.642L9.92578 18.2937L10.4145 16.794L12.5658 16.1409L15.2727 6.93366C15.302 6.82758 15.3667 6.7347 15.456 6.67039C15.5443 6.6053 15.6518 6.57152 15.7614 6.57439H18.6705C18.7201 6.57311 18.7695 6.58151 18.816 6.59912C18.8629 6.61615 18.9059 6.64235 18.9425 6.67621C18.9792 6.71002 19.0085 6.75115 19.0283 6.79693C19.0492 6.84266 19.0606 6.89214 19.0618 6.94239V7.06748L16.7796 14.8275L18.9323 14.1744L18.4727 15.7366L16.2909 16.3562Z" fill="#FCFCFD"/>
</g>
<defs>
<clipPath id="clip0_10008_3383">
<rect width="32" height="32" fill="white"/>
</clipPath>
</defs>
</svg>
