<svg width="344" height="206" viewBox="0 0 344 206" fill="none" xmlns="http://www.w3.org/2000/svg">
<g clip-path="url(#clip0_8574_44632)">
<path d="M229.47 38.9316C214.461 28.4499 196.851 22.3121 178.579 21.1937C160.306 20.0753 142.079 24.0196 125.904 32.5927C109.729 41.1658 96.2323 54.0351 86.8998 69.7844C77.5674 85.5338 72.7608 103.552 73.0092 121.858L172.5 120.508L229.47 38.9316Z" fill="url(#paint0_linear_8574_44632)" fill-opacity="0.08"/>
<path d="M59 122C59 92.0305 70.9053 63.2885 92.097 42.0969C113.289 20.9053 142.031 8.99999 172 9C201.969 9.00001 230.711 20.9053 251.903 42.0969C273.095 63.2886 285 92.0305 285 122" stroke="url(#paint1_linear_8574_44632)" stroke-width="8" stroke-dasharray="2 8"/>
<path fill-rule="evenodd" clip-rule="evenodd" d="M174.5 21C175.881 21 177 22.1193 177 23.5C177 24.8807 175.881 26 174.5 26C173.119 26 172 24.8807 172 23.5C172 22.1193 173.119 21 174.5 21ZM229 43.5C229 42.1193 230.119 41 231.5 41C232.881 41 234 42.1193 234 43.5C234 44.8807 232.881 46 231.5 46C230.119 46 229 44.8807 229 43.5ZM250 67.5C250 66.1193 251.119 65 252.5 65C253.881 65 255 66.1193 255 67.5C255 68.8807 253.881 70 252.5 70C251.119 70 250 68.8807 250 67.5ZM262 93.5C262 92.1193 263.119 91 264.5 91C265.881 91 267 92.1193 267 93.5C267 94.8807 265.881 96 264.5 96C263.119 96 262 94.8807 262 93.5ZM266 120.5C266 119.119 267.119 118 268.5 118C269.881 118 271 119.119 271 120.5C271 121.881 269.881 123 268.5 123C267.119 123 266 121.881 266 120.5ZM76.5 118C77.8807 118 79 119.119 79 120.5C79 121.881 77.8807 123 76.5 123C75.1193 123 74 121.881 74 120.5C74 119.119 75.1193 118 76.5 118ZM80.5 91C81.8807 91 83 92.1193 83 93.5C83 94.8807 81.8807 96 80.5 96C79.1193 96 78 94.8807 78 93.5C78 92.1193 79.1193 91 80.5 91ZM201 28.5C201 27.1193 202.119 26 203.5 26C204.881 26 206 27.1193 206 28.5C206 29.8807 204.881 31 203.5 31C202.119 31 201 29.8807 201 28.5ZM94.5 65C95.8807 65 97 66.1193 97 67.5C97 68.8807 95.8807 70 94.5 70C93.1193 70 92 68.8807 92 67.5C92 66.1193 93.1193 65 94.5 65ZM141 28.5C141 27.1193 142.119 26 143.5 26C144.881 26 146 27.1193 146 28.5C146 29.8807 144.881 31 143.5 31C142.119 31 141 29.8807 141 28.5ZM115.5 41C116.881 41 118 42.1193 118 43.5C118 44.8807 116.881 46 115.5 46C114.119 46 113 44.8807 113 43.5C113 42.1193 114.119 41 115.5 41Z" fill="url(#paint2_linear_8574_44632)"/>
<path d="M54 140.982C54 140.095 54.5909 139.375 55.3198 139.375H195.484C195.734 139.375 195.98 139.462 196.191 139.625L201.388 143.643C202.204 144.275 202.204 145.725 201.388 146.357L196.191 150.375C195.98 150.538 195.734 150.625 195.484 150.625H55.3198C54.5909 150.625 54 149.905 54 149.018V140.982Z" fill="#2FA766"/>
<path d="M202.307 140.855C201.749 140.422 202.002 139.375 202.665 139.375H288.673C289.406 139.375 290 140.095 290 140.982V149.018C290 149.905 289.406 150.625 288.673 150.625H202.665C202.002 150.625 201.749 149.578 202.307 149.145L206.775 145.676C207.183 145.36 207.183 144.64 206.775 144.324L202.307 140.855Z" fill="#E2464A"/>
<path d="M57.5 180L62.84 167.48H56.88V170.08H55.38V166.04H64.54V167.52L59.3 180H57.5ZM76.6522 180H67.4922V178.28L72.0522 174.08C72.7055 173.48 73.2522 172.847 73.6922 172.18C74.1322 171.5 74.3522 170.82 74.3522 170.14V169.9C74.3522 169.127 74.1389 168.5 73.7122 168.02C73.2855 167.54 72.6389 167.3 71.7722 167.3C71.3455 167.3 70.9722 167.36 70.6522 167.48C70.3322 167.6 70.0522 167.767 69.8122 167.98C69.5855 168.193 69.3922 168.447 69.2322 168.74C69.0855 169.02 68.9655 169.327 68.8722 169.66L67.3722 169.08C67.5055 168.667 67.6855 168.267 67.9122 167.88C68.1522 167.48 68.4455 167.127 68.7922 166.82C69.1522 166.513 69.5789 166.267 70.0722 166.08C70.5789 165.893 71.1722 165.8 71.8522 165.8C72.5322 165.8 73.1389 165.9 73.6722 166.1C74.2055 166.3 74.6522 166.58 75.0122 166.94C75.3722 167.3 75.6455 167.727 75.8322 168.22C76.0322 168.713 76.1322 169.26 76.1322 169.86C76.1322 170.407 76.0522 170.913 75.8922 171.38C75.7455 171.847 75.5389 172.293 75.2722 172.72C75.0055 173.133 74.6789 173.54 74.2922 173.94C73.9189 174.34 73.5122 174.74 73.0722 175.14L69.3122 178.52H76.6522V180Z" fill="#2FA766"/>
<path d="M83.674 179V166.436H85.186V177.668H90.532V179H83.674ZM95.8818 179.216C95.2578 179.216 94.6878 179.102 94.1718 178.874C93.6558 178.646 93.2118 178.322 92.8398 177.902C92.4798 177.47 92.1978 176.96 91.9938 176.372C91.7898 175.772 91.6878 175.1 91.6878 174.356C91.6878 173.624 91.7898 172.958 91.9938 172.358C92.1978 171.758 92.4798 171.248 92.8398 170.828C93.2118 170.396 93.6558 170.066 94.1718 169.838C94.6878 169.61 95.2578 169.496 95.8818 169.496C96.5058 169.496 97.0698 169.61 97.5738 169.838C98.0898 170.066 98.5338 170.396 98.9058 170.828C99.2778 171.248 99.5658 171.758 99.7698 172.358C99.9738 172.958 100.076 173.624 100.076 174.356C100.076 175.1 99.9738 175.772 99.7698 176.372C99.5658 176.96 99.2778 177.47 98.9058 177.902C98.5338 178.322 98.0898 178.646 97.5738 178.874C97.0698 179.102 96.5058 179.216 95.8818 179.216ZM95.8818 177.938C96.6618 177.938 97.2978 177.698 97.7898 177.218C98.2818 176.738 98.5278 176.006 98.5278 175.022V173.69C98.5278 172.706 98.2818 171.974 97.7898 171.494C97.2978 171.014 96.6618 170.774 95.8818 170.774C95.1018 170.774 94.4658 171.014 93.9738 171.494C93.4818 171.974 93.2358 172.706 93.2358 173.69V175.022C93.2358 176.006 93.4818 176.738 93.9738 177.218C94.4658 177.698 95.1018 177.938 95.8818 177.938ZM102.444 179V169.712H103.884V171.224H103.956C104.184 170.696 104.502 170.276 104.91 169.964C105.33 169.652 105.888 169.496 106.584 169.496C107.544 169.496 108.3 169.808 108.852 170.432C109.416 171.044 109.698 171.914 109.698 173.042V179H108.258V173.294C108.258 171.626 107.556 170.792 106.152 170.792C105.864 170.792 105.582 170.828 105.306 170.9C105.042 170.972 104.802 171.08 104.586 171.224C104.37 171.368 104.196 171.554 104.064 171.782C103.944 171.998 103.884 172.256 103.884 172.556V179H102.444ZM120.505 180.026C120.505 180.986 120.127 181.688 119.371 182.132C118.627 182.588 117.505 182.816 116.005 182.816C114.553 182.816 113.509 182.618 112.873 182.222C112.237 181.826 111.919 181.262 111.919 180.53C111.919 180.026 112.051 179.63 112.315 179.342C112.579 179.066 112.939 178.862 113.395 178.73V178.532C112.843 178.268 112.567 177.836 112.567 177.236C112.567 176.768 112.717 176.414 113.017 176.174C113.317 175.922 113.701 175.736 114.169 175.616V175.544C113.617 175.28 113.185 174.902 112.873 174.41C112.573 173.918 112.423 173.348 112.423 172.7C112.423 172.232 112.507 171.8 112.675 171.404C112.843 171.008 113.077 170.672 113.377 170.396C113.689 170.108 114.055 169.886 114.475 169.73C114.907 169.574 115.387 169.496 115.915 169.496C116.575 169.496 117.163 169.616 117.679 169.856V169.694C117.679 169.334 117.763 169.04 117.931 168.812C118.099 168.572 118.375 168.452 118.759 168.452H120.145V169.712H118.381V170.306C118.717 170.594 118.975 170.942 119.155 171.35C119.347 171.746 119.443 172.196 119.443 172.7C119.443 173.168 119.359 173.6 119.191 173.996C119.023 174.392 118.783 174.734 118.471 175.022C118.171 175.298 117.805 175.514 117.373 175.67C116.941 175.826 116.461 175.904 115.933 175.904C115.633 175.904 115.333 175.874 115.033 175.814C114.721 175.898 114.439 176.024 114.187 176.192C113.935 176.348 113.809 176.57 113.809 176.858C113.809 177.134 113.941 177.32 114.205 177.416C114.469 177.512 114.811 177.56 115.231 177.56H117.211C118.363 177.56 119.197 177.782 119.713 178.226C120.241 178.658 120.505 179.258 120.505 180.026ZM119.155 180.134C119.155 179.762 119.011 179.462 118.723 179.234C118.447 179.018 117.949 178.91 117.229 178.91H114.133C113.557 179.174 113.269 179.594 113.269 180.17C113.269 180.578 113.419 180.926 113.719 181.214C114.031 181.502 114.553 181.646 115.285 181.646H116.617C117.421 181.646 118.045 181.52 118.489 181.268C118.933 181.016 119.155 180.638 119.155 180.134ZM115.933 174.752C116.545 174.752 117.031 174.608 117.391 174.32C117.751 174.02 117.931 173.564 117.931 172.952V172.448C117.931 171.836 117.751 171.386 117.391 171.098C117.031 170.798 116.545 170.648 115.933 170.648C115.321 170.648 114.835 170.798 114.475 171.098C114.115 171.386 113.935 171.836 113.935 172.448V172.952C113.935 173.564 114.115 174.02 114.475 174.32C114.835 174.608 115.321 174.752 115.933 174.752Z" fill="#777E90"/>
<path d="M223.202 179.216C222.182 179.216 221.312 179.024 220.592 178.64C219.872 178.244 219.26 177.704 218.756 177.02L219.872 176.084C220.316 176.672 220.808 177.122 221.348 177.434C221.888 177.734 222.524 177.884 223.256 177.884C224.156 177.884 224.84 177.668 225.308 177.236C225.788 176.804 226.028 176.228 226.028 175.508C226.028 174.908 225.848 174.446 225.488 174.122C225.128 173.798 224.534 173.54 223.706 173.348L222.68 173.114C221.528 172.85 220.646 172.454 220.034 171.926C219.434 171.386 219.134 170.63 219.134 169.658C219.134 169.106 219.236 168.614 219.44 168.182C219.644 167.75 219.926 167.39 220.286 167.102C220.658 166.814 221.096 166.598 221.6 166.454C222.116 166.298 222.68 166.22 223.292 166.22C224.24 166.22 225.05 166.394 225.722 166.742C226.406 167.09 226.982 167.6 227.45 168.272L226.316 169.1C225.968 168.62 225.548 168.242 225.056 167.966C224.564 167.69 223.952 167.552 223.22 167.552C222.416 167.552 221.78 167.726 221.312 168.074C220.856 168.41 220.628 168.92 220.628 169.604C220.628 170.204 220.82 170.66 221.204 170.972C221.6 171.272 222.194 171.512 222.986 171.692L224.012 171.926C225.248 172.202 226.142 172.622 226.694 173.186C227.246 173.75 227.522 174.5 227.522 175.436C227.522 176.012 227.42 176.534 227.216 177.002C227.024 177.47 226.742 177.866 226.37 178.19C225.998 178.514 225.542 178.766 225.002 178.946C224.474 179.126 223.874 179.216 223.202 179.216ZM229.989 165.68H231.429V171.224H231.501C231.729 170.696 232.047 170.276 232.455 169.964C232.875 169.652 233.433 169.496 234.129 169.496C235.089 169.496 235.845 169.808 236.397 170.432C236.961 171.044 237.243 171.914 237.243 173.042V179H235.803V173.294C235.803 171.626 235.101 170.792 233.697 170.792C233.409 170.792 233.127 170.828 232.851 170.9C232.587 170.972 232.347 171.08 232.131 171.224C231.915 171.368 231.741 171.554 231.609 171.782C231.489 171.998 231.429 172.256 231.429 172.556V179H229.989V165.68ZM243.729 179.216C243.105 179.216 242.535 179.102 242.019 178.874C241.503 178.646 241.059 178.322 240.687 177.902C240.327 177.47 240.045 176.96 239.841 176.372C239.637 175.772 239.535 175.1 239.535 174.356C239.535 173.624 239.637 172.958 239.841 172.358C240.045 171.758 240.327 171.248 240.687 170.828C241.059 170.396 241.503 170.066 242.019 169.838C242.535 169.61 243.105 169.496 243.729 169.496C244.353 169.496 244.917 169.61 245.421 169.838C245.937 170.066 246.381 170.396 246.753 170.828C247.125 171.248 247.413 171.758 247.617 172.358C247.821 172.958 247.923 173.624 247.923 174.356C247.923 175.1 247.821 175.772 247.617 176.372C247.413 176.96 247.125 177.47 246.753 177.902C246.381 178.322 245.937 178.646 245.421 178.874C244.917 179.102 244.353 179.216 243.729 179.216ZM243.729 177.938C244.509 177.938 245.145 177.698 245.637 177.218C246.129 176.738 246.375 176.006 246.375 175.022V173.69C246.375 172.706 246.129 171.974 245.637 171.494C245.145 171.014 244.509 170.774 243.729 170.774C242.949 170.774 242.313 171.014 241.821 171.494C241.329 171.974 241.083 172.706 241.083 173.69V175.022C241.083 176.006 241.329 176.738 241.821 177.218C242.313 177.698 242.949 177.938 243.729 177.938ZM250.292 179V169.712H251.732V171.422H251.822C251.99 170.978 252.29 170.582 252.722 170.234C253.154 169.886 253.748 169.712 254.504 169.712H255.062V171.152H254.216C253.436 171.152 252.824 171.302 252.38 171.602C251.948 171.89 251.732 172.256 251.732 172.7V179H250.292ZM259.023 179C258.519 179 258.135 178.862 257.871 178.586C257.619 178.298 257.493 177.926 257.493 177.47V170.972H255.963V169.712H256.827C257.139 169.712 257.349 169.652 257.457 169.532C257.577 169.4 257.637 169.178 257.637 168.866V167.138H258.933V169.712H260.967V170.972H258.933V177.74H260.823V179H259.023Z" fill="#777E90"/>
<path d="M276.66 180H267.5V178.28L272.06 174.08C272.713 173.48 273.26 172.847 273.7 172.18C274.14 171.5 274.36 170.82 274.36 170.14V169.9C274.36 169.127 274.147 168.5 273.72 168.02C273.293 167.54 272.647 167.3 271.78 167.3C271.353 167.3 270.98 167.36 270.66 167.48C270.34 167.6 270.06 167.767 269.82 167.98C269.593 168.193 269.4 168.447 269.24 168.74C269.093 169.02 268.973 169.327 268.88 169.66L267.38 169.08C267.513 168.667 267.693 168.267 267.92 167.88C268.16 167.48 268.453 167.127 268.8 166.82C269.16 166.513 269.587 166.267 270.08 166.08C270.587 165.893 271.18 165.8 271.86 165.8C272.54 165.8 273.147 165.9 273.68 166.1C274.213 166.3 274.66 166.58 275.02 166.94C275.38 167.3 275.653 167.727 275.84 168.22C276.04 168.713 276.14 169.26 276.14 169.86C276.14 170.407 276.06 170.913 275.9 171.38C275.753 171.847 275.547 172.293 275.28 172.72C275.013 173.133 274.687 173.54 274.3 173.94C273.927 174.34 273.52 174.74 273.08 175.14L269.32 178.52H276.66V180ZM283.992 180.24C283.192 180.24 282.492 180.14 281.892 179.94C281.292 179.727 280.786 179.44 280.372 179.08C279.972 178.72 279.666 178.293 279.452 177.8C279.252 177.307 279.152 176.773 279.152 176.2C279.152 175.24 279.412 174.48 279.932 173.92C280.452 173.36 281.132 172.967 281.972 172.74V172.58C281.239 172.327 280.652 171.92 280.212 171.36C279.786 170.787 279.572 170.1 279.572 169.3C279.572 168.233 279.959 167.387 280.732 166.76C281.506 166.12 282.592 165.8 283.992 165.8C285.392 165.8 286.479 166.12 287.252 166.76C288.026 167.387 288.412 168.233 288.412 169.3C288.412 170.1 288.192 170.787 287.752 171.36C287.326 171.92 286.746 172.327 286.012 172.58V172.74C286.852 172.967 287.532 173.36 288.052 173.92C288.572 174.48 288.832 175.24 288.832 176.2C288.832 176.773 288.726 177.307 288.512 177.8C288.312 178.293 288.006 178.72 287.592 179.08C287.192 179.44 286.692 179.727 286.092 179.94C285.492 180.14 284.792 180.24 283.992 180.24ZM283.992 178.78C284.966 178.78 285.719 178.567 286.252 178.14C286.786 177.7 287.052 177.08 287.052 176.28V175.86C287.052 175.06 286.786 174.447 286.252 174.02C285.719 173.58 284.966 173.36 283.992 173.36C283.019 173.36 282.266 173.58 281.732 174.02C281.199 174.447 280.932 175.06 280.932 175.86V176.28C280.932 177.08 281.199 177.7 281.732 178.14C282.266 178.567 283.019 178.78 283.992 178.78ZM283.992 171.96C284.872 171.96 285.539 171.773 285.992 171.4C286.446 171.027 286.672 170.48 286.672 169.76V169.46C286.672 168.74 286.446 168.193 285.992 167.82C285.539 167.447 284.872 167.26 283.992 167.26C283.112 167.26 282.446 167.447 281.992 167.82C281.539 168.193 281.312 168.74 281.312 169.46V169.76C281.312 170.48 281.539 171.027 281.992 171.4C282.446 171.773 283.112 171.96 283.992 171.96Z" fill="#E2464A"/>
<path d="M160.394 94L166.712 78.634H160.446V81.962H157.534V75.852H170.118V78.79L163.982 94H160.394ZM185.786 94H173.202V90.828L178.896 85.836C179.867 84.9867 180.577 84.224 181.028 83.548C181.479 82.8547 181.704 82.1093 181.704 81.312V80.974C181.704 80.1767 181.444 79.57 180.924 79.154C180.404 78.7207 179.771 78.504 179.026 78.504C178.09 78.504 177.379 78.7727 176.894 79.31C176.409 79.83 176.062 80.4627 175.854 81.208L172.89 80.064C173.081 79.4573 173.349 78.8853 173.696 78.348C174.043 77.7933 174.476 77.308 174.996 76.892C175.533 76.476 176.157 76.1467 176.868 75.904C177.579 75.6613 178.393 75.54 179.312 75.54C180.265 75.54 181.115 75.6787 181.86 75.956C182.605 76.216 183.229 76.5887 183.732 77.074C184.252 77.5593 184.642 78.1313 184.902 78.79C185.179 79.4487 185.318 80.168 185.318 80.948C185.318 81.7107 185.197 82.404 184.954 83.028C184.711 83.652 184.382 84.25 183.966 84.822C183.55 85.3767 183.065 85.914 182.51 86.434C181.955 86.9367 181.366 87.448 180.742 87.968L176.92 91.114H185.786V94Z" fill="#F6BA47"/>
<path d="M153.86 120V106.04H162.18V107.52H155.54V112.2H161.6V113.68H155.54V120H153.86ZM168.244 120.24C167.537 120.24 166.897 120.113 166.324 119.86C165.764 119.607 165.277 119.247 164.864 118.78C164.464 118.3 164.151 117.733 163.924 117.08C163.711 116.413 163.604 115.667 163.604 114.84C163.604 114.027 163.711 113.287 163.924 112.62C164.151 111.953 164.464 111.387 164.864 110.92C165.277 110.44 165.764 110.073 166.324 109.82C166.897 109.567 167.537 109.44 168.244 109.44C168.937 109.44 169.557 109.567 170.104 109.82C170.651 110.073 171.117 110.427 171.504 110.88C171.891 111.32 172.184 111.847 172.384 112.46C172.597 113.073 172.704 113.747 172.704 114.48V115.24H165.284V115.72C165.284 116.16 165.351 116.573 165.484 116.96C165.631 117.333 165.831 117.66 166.084 117.94C166.351 118.22 166.671 118.44 167.044 118.6C167.431 118.76 167.864 118.84 168.344 118.84C168.997 118.84 169.564 118.687 170.044 118.38C170.537 118.073 170.917 117.633 171.184 117.06L172.324 117.88C171.991 118.587 171.471 119.16 170.764 119.6C170.057 120.027 169.217 120.24 168.244 120.24ZM168.244 110.78C167.804 110.78 167.404 110.86 167.044 111.02C166.684 111.167 166.371 111.38 166.104 111.66C165.851 111.94 165.651 112.273 165.504 112.66C165.357 113.033 165.284 113.447 165.284 113.9V114.04H170.984V113.82C170.984 112.9 170.731 112.167 170.224 111.62C169.731 111.06 169.071 110.78 168.244 110.78ZM182.841 120C182.241 120 181.807 119.84 181.541 119.52C181.287 119.2 181.127 118.8 181.061 118.32H180.961C180.734 118.96 180.361 119.44 179.841 119.76C179.321 120.08 178.701 120.24 177.981 120.24C176.887 120.24 176.034 119.96 175.421 119.4C174.821 118.84 174.521 118.08 174.521 117.12C174.521 116.147 174.874 115.4 175.581 114.88C176.301 114.36 177.414 114.1 178.921 114.1H180.961V113.08C180.961 112.347 180.761 111.787 180.361 111.4C179.961 111.013 179.347 110.82 178.521 110.82C177.894 110.82 177.367 110.96 176.941 111.24C176.527 111.52 176.181 111.893 175.901 112.36L174.941 111.46C175.221 110.9 175.667 110.427 176.281 110.04C176.894 109.64 177.667 109.44 178.601 109.44C179.854 109.44 180.827 109.747 181.521 110.36C182.214 110.973 182.561 111.827 182.561 112.92V118.6H183.741V120H182.841ZM178.241 118.88C178.641 118.88 179.007 118.833 179.341 118.74C179.674 118.647 179.961 118.513 180.201 118.34C180.441 118.167 180.627 117.967 180.761 117.74C180.894 117.513 180.961 117.267 180.961 117V115.3H178.841C177.921 115.3 177.247 115.433 176.821 115.7C176.407 115.967 176.201 116.353 176.201 116.86V117.28C176.201 117.787 176.381 118.18 176.741 118.46C177.114 118.74 177.614 118.88 178.241 118.88ZM186.024 120V109.68H187.624V111.58H187.724C187.911 111.087 188.244 110.647 188.724 110.26C189.204 109.873 189.864 109.68 190.704 109.68H191.324V111.28H190.384C189.518 111.28 188.838 111.447 188.344 111.78C187.864 112.1 187.624 112.507 187.624 113V120H186.024Z" fill="#F6BA47"/>
</g>
<defs>
<linearGradient id="paint0_linear_8574_44632" x1="72.4231" y1="120.528" x2="271.903" y2="120.528" gradientUnits="userSpaceOnUse">
<stop stop-color="#B5383B"/>
<stop offset="0.5" stop-color="#F6BA47"/>
<stop offset="1" stop-color="#268752"/>
</linearGradient>
<linearGradient id="paint1_linear_8574_44632" x1="54.6946" y1="121.604" x2="289.258" y2="121.604" gradientUnits="userSpaceOnUse">
<stop stop-color="#E2464A"/>
<stop offset="0.5" stop-color="#F6BA47"/>
<stop offset="1" stop-color="#2FA766"/>
</linearGradient>
<linearGradient id="paint2_linear_8574_44632" x1="73.1162" y1="72.1542" x2="271.875" y2="72.1542" gradientUnits="userSpaceOnUse">
<stop stop-color="#B5383B"/>
<stop offset="0.5" stop-color="#F6BA47"/>
<stop offset="1" stop-color="#268752"/>
</linearGradient>
<clipPath id="clip0_8574_44632">
<rect width="344" height="206" fill="white"/>
</clipPath>
</defs>
</svg>
