<svg width="20" height="20" viewBox="0 0 20 20" fill="none" xmlns="http://www.w3.org/2000/svg">
<g clip-path="url(#clip0_10218_27145)">
<path d="M10 20C15.5228 20 20 15.5228 20 10C20 4.47715 15.5228 0 10 0C4.47715 0 0 4.47715 0 10C0 15.5228 4.47715 20 10 20Z" fill="#F2941B"/>
<path d="M10.3538 3.125H10.3606C11.6556 4.40625 12.9362 5.7 14.2237 6.98813H17.4363L10.205 17.2338C10.085 16.0306 9.9925 14.8275 9.88625 13.625C10.9338 12.1181 12.0094 10.625 13.0569 9.125L10.665 6.74063C10.6629 6.45861 10.6393 6.17718 10.5944 5.89875C10.5163 4.97875 10.4669 4.045 10.3538 3.125ZM2.50688 13.4125C4.93375 10.0025 7.33938 6.57813 9.75937 3.16063L10.0637 6.78313C9.00937 8.29 7.94812 9.77625 6.89375 11.2763C7.67937 12.0613 8.46438 12.8606 9.26437 13.6463C9.37063 14.8488 9.4625 16.0663 9.58313 17.2763H9.56812L5.72625 13.4269C4.65125 13.4413 3.57562 13.42 2.5 13.4413V13.4125H2.50688Z" fill="white"/>
</g>
<defs>
<clipPath id="clip0_10218_27145">
<rect width="20" height="20" fill="white"/>
</clipPath>
</defs>
</svg>
