<svg width="40" height="30" viewBox="0 0 40 30" fill="none" xmlns="http://www.w3.org/2000/svg">
<g clip-path="url(#clip0_10008_39447)">
<path fill-rule="evenodd" clip-rule="evenodd" d="M0 0H57V2.3125H0V0ZM0 4.61875H57V6.93125H0V4.61875ZM0 9.23125H57V11.5437H0V9.23125ZM0 13.8438H57V16.1562H0V13.8438ZM0 18.4688H57V20.7687H0V18.4688ZM0 23.075H57V25.3875H0V23.075ZM0 27.6875H57V30H0V27.6875Z" fill="#BD3D44"/>
<path fill-rule="evenodd" clip-rule="evenodd" d="M0 2.3125H57V4.61875H0V2.3125ZM0 6.925H57V9.23125H0V6.925ZM0 11.5375H57V13.85H0V11.5375ZM0 16.1562H57V18.4688H0V16.1562ZM0 20.7687H57V23.0812H0V20.7687ZM0 25.3813H57V27.6938H0V25.3813Z" fill="white"/>
<path fill-rule="evenodd" clip-rule="evenodd" d="M0 0H22.8V16.1562H0V0Z" fill="#192F5D"/>
<path fill-rule="evenodd" clip-rule="evenodd" d="M1.90078 0.6875L2.11328 1.33125H2.77578L2.23828 1.725L2.44453 2.36875L1.90078 1.96875L1.36328 2.3625L1.56328 1.725L1.01953 1.33125H1.70078L1.90078 0.6875ZM5.70078 0.6875L5.90703 1.33125H6.58203L6.03828 1.725L6.23828 2.36875L5.70078 1.96875L5.15703 2.3625L5.36328 1.725L4.82578 1.33125H5.48828L5.70078 0.6875ZM9.50078 0.6875L9.70703 1.33125H10.3758L9.83828 1.725L10.0445 2.36875L9.50078 1.96875L8.95703 2.3625L9.16328 1.725L8.61953 1.33125H9.29453L9.50078 0.6875ZM13.3008 0.6875L13.507 1.33125H14.182L13.6383 1.725L13.8445 2.36875L13.3008 1.96875L12.757 2.3625L12.9695 1.725L12.4195 1.33125H13.0883L13.3008 0.6875ZM17.1008 0.6875L17.307 1.33125H17.9758L17.4383 1.725L17.6445 2.36875L17.1008 1.96875L16.557 2.3625L16.7633 1.725L16.2258 1.33125H16.8945L17.1008 0.6875ZM20.9008 0.6875L21.107 1.33125H21.782L21.232 1.725L21.4445 2.36875L20.9008 1.96875L20.357 2.3625L20.5695 1.725L20.0195 1.33125H20.6945L20.9008 0.6875ZM3.80078 2.3125L4.00703 2.95H4.68828L4.14453 3.3375L4.34453 3.98125L3.81328 3.5875L3.26953 3.98125L3.46328 3.3375L2.93828 2.95H3.60703L3.80078 2.3125ZM7.60078 2.3125L7.81328 2.95H8.48203L7.93203 3.3375L8.14453 3.98125L7.60078 3.5875L7.05703 3.98125L7.26328 3.3375L6.71953 2.95H7.39453L7.60078 2.3125ZM11.4008 2.3125L11.607 2.95H12.282L11.7383 3.3375L11.9445 3.98125L11.4008 3.5875L10.857 3.98125L11.0633 3.3375L10.5258 2.95H11.1883L11.4008 2.3125ZM15.2008 2.3125L15.4133 2.95H16.082L15.532 3.3375L15.7445 3.98125L15.2008 3.5875L14.6633 3.98125L14.8633 3.3375L14.3195 2.95H15.0008L15.2008 2.3125ZM19.0008 2.3125L19.207 2.95H19.882L19.3383 3.3375L19.5445 3.98125L19.0008 3.5875L18.457 3.98125L18.6633 3.3375L18.1258 2.95H18.7945L19.0008 2.3125ZM1.90078 3.9125L2.11328 4.5625H2.77578L2.23828 4.95625L2.44453 5.59375L1.90078 5.2L1.36328 5.59375L1.56328 4.95625L1.01953 4.5625H1.70078L1.90078 3.9125ZM5.70078 3.9125L5.90703 4.5625H6.58203L6.03828 4.95625L6.23828 5.59375L5.70078 5.2L5.15703 5.59375L5.36328 4.95L4.82578 4.55625H5.48828L5.70078 3.9125ZM9.50078 3.9125L9.70703 4.55625H10.3758L9.83828 4.95L10.0445 5.5875L9.50078 5.19375L8.95703 5.5875L9.16328 4.94375L8.61953 4.55H9.29453L9.50078 3.9125ZM13.3008 3.9125L13.507 4.55625H14.182L13.6383 4.95L13.8445 5.5875L13.3008 5.19375L12.757 5.5875L12.9695 4.94375L12.4195 4.55H13.0883L13.3008 3.9125ZM17.1008 3.9125L17.307 4.55625H17.9758L17.4383 4.95L17.6445 5.5875L17.1008 5.19375L16.557 5.5875L16.7633 4.94375L16.2258 4.55H16.8945L17.1008 3.9125ZM20.9008 3.9125L21.107 4.55625H21.782L21.232 4.95L21.4445 5.5875L20.9008 5.19375L20.357 5.5875L20.5695 4.94375L20.0195 4.55H20.6945L20.9008 3.9125ZM3.80078 5.5375L4.00703 6.175H4.68828L4.14453 6.56875L4.35078 7.2125L3.80703 6.8125L3.26328 7.20625L3.46953 6.56875L2.93203 6.175H3.60078L3.80078 5.5375ZM7.60078 5.5375L7.81328 6.175H8.48203L7.93203 6.56875L8.14453 7.2125L7.60078 6.8125L7.05703 7.20625L7.26328 6.56875L6.71953 6.175H7.39453L7.60078 5.5375ZM11.4008 5.5375L11.607 6.175H12.282L11.7383 6.56875L11.9445 7.2125L11.4008 6.8125L10.857 7.20625L11.0633 6.56875L10.5258 6.175H11.1883L11.4008 5.5375ZM15.2008 5.5375L15.4133 6.175H16.082L15.5383 6.56875L15.7445 7.2125L15.2008 6.8125L14.6633 7.20625L14.8633 6.56875L14.3195 6.175H15.0008L15.2008 5.5375ZM19.0008 5.5375L19.207 6.175H19.882L19.3383 6.56875L19.5445 7.2125L19.0008 6.8125L18.457 7.20625L18.6633 6.56875L18.1258 6.175H18.7945L19.0008 5.5375ZM1.90078 7.15625L2.11328 7.79375H2.77578L2.23828 8.1875L2.44453 8.83125L1.90078 8.43125L1.36328 8.825L1.56328 8.1875L1.01953 7.79375H1.70078L1.90078 7.15625ZM5.70078 7.15625L5.90703 7.79375H6.58203L6.03828 8.1875L6.23828 8.825L5.70078 8.43125L5.15703 8.825L5.36328 8.1875L4.82578 7.79375H5.48828L5.70078 7.15625ZM9.50078 7.15625L9.70703 7.79375H10.3758L9.83828 8.1875L10.0445 8.83125L9.50078 8.43125L8.95703 8.825L9.16328 8.1875L8.61953 7.79375H9.29453L9.50078 7.15625ZM13.3008 7.15625L13.507 7.79375H14.182L13.6383 8.1875L13.8445 8.83125L13.3008 8.43125L12.757 8.825L12.9695 8.1875L12.4195 7.79375H13.0883L13.3008 7.15625ZM17.1008 7.15625L17.307 7.79375H17.9758L17.4383 8.1875L17.6445 8.83125L17.1008 8.43125L16.557 8.825L16.7633 8.1875L16.2258 7.79375H16.8945L17.1008 7.15625ZM20.9008 7.15625L21.107 7.79375H21.782L21.232 8.1875L21.4445 8.83125L20.9008 8.43125L20.357 8.825L20.5633 8.1875L20.0133 7.79375H20.6883L20.9008 7.15625ZM3.80078 8.76875L4.00703 9.4125H4.68828L4.14453 9.8L4.35078 10.4438L3.80703 10.0438L3.26328 10.4438L3.46953 9.8L2.93203 9.40625H3.60078L3.80078 8.76875ZM7.60078 8.76875L7.81328 9.4125H8.48203L7.93203 9.8L8.14453 10.4438L7.60078 10.0438L7.05703 10.4438L7.26328 9.8L6.71953 9.40625H7.39453L7.60078 8.76875ZM11.4008 8.76875L11.607 9.4125H12.282L11.7383 9.8L11.9445 10.4438L11.4008 10.0438L10.857 10.4438L11.0633 9.8L10.5258 9.40625H11.1883L11.4008 8.76875ZM15.2008 8.76875L15.4133 9.4125H16.082L15.5383 9.8L15.7445 10.4438L15.2008 10.0438L14.6633 10.4438L14.8633 9.8L14.3195 9.40625H15.0008L15.2008 8.76875ZM19.0008 8.76875L19.207 9.4125H19.882L19.3383 9.8L19.5445 10.4438L19.0008 10.0438L18.457 10.4438L18.6633 9.8L18.1258 9.40625H18.7945L19.0008 8.76875ZM1.90078 10.3813L2.11328 11.025H2.77578L2.23828 11.4188L2.44453 12.05L1.90078 11.6625L1.36328 12.05L1.56328 11.4125L1.01953 11.0188H1.70078L1.90078 10.3813ZM5.70078 10.3813L5.90703 11.025H6.58203L6.03828 11.4188L6.24453 12.05L5.70078 11.6625L5.15703 12.05L5.36953 11.4125L4.82578 11.0188H5.48828L5.70078 10.3813ZM9.50078 10.3813L9.70703 11.025H10.3758L9.83828 11.4188L10.0445 12.05L9.50078 11.6625L8.95703 12.05L9.16328 11.4125L8.61953 11.0188H9.29453L9.50078 10.3813ZM13.3008 10.3813L13.507 11.025H14.182L13.6383 11.4188L13.8445 12.05L13.3008 11.6625L12.757 12.05L12.9695 11.4125L12.4195 11.0188H13.0883L13.3008 10.3813ZM17.1008 10.3813L17.307 11.025H17.9758L17.4383 11.4188L17.6445 12.05L17.1008 11.6625L16.557 12.05L16.7633 11.4125L16.2258 11.0188H16.8945L17.1008 10.3813ZM20.9008 10.3813L21.107 11.025H21.782L21.232 11.4188L21.4445 12.05L20.9008 11.6625L20.357 12.05L20.5695 11.4125L20.0195 11.0188H20.6945L20.9008 10.3813ZM3.80078 12L4.00703 12.6375H4.68828L4.14453 13.0313L4.35078 13.675L3.80703 13.275L3.26328 13.6688L3.46953 13.0313L2.93203 12.6375H3.60078L3.80078 12ZM7.60078 12L7.81328 12.6375H8.48203L7.93203 13.0313L8.14453 13.675L7.60078 13.275L7.05703 13.6688L7.26328 13.0313L6.71953 12.6375H7.39453L7.60078 12ZM11.4008 12L11.607 12.6375H12.282L11.7383 13.0313L11.9445 13.675L11.4008 13.275L10.857 13.6688L11.0633 13.0313L10.5258 12.6375H11.1883L11.4008 12ZM15.2008 12L15.4133 12.6375H16.082L15.5383 13.0313L15.7445 13.675L15.2008 13.275L14.6633 13.6688L14.8633 13.0313L14.3195 12.6375H15.0008L15.2008 12ZM19.0008 12L19.207 12.6375H19.882L19.3383 13.0313L19.5445 13.675L19.0008 13.275L18.457 13.6688L18.6633 13.0313L18.1258 12.6375H18.7945L19.0008 12ZM1.90078 13.6188L2.11328 14.2563H2.77578L2.23828 14.65L2.44453 15.2875L1.90078 14.8938L1.36328 15.2875L1.56328 14.6438L1.01953 14.25H1.70078L1.90078 13.6188ZM5.70078 13.6188L5.90703 14.2563H6.58203L6.03828 14.65L6.24453 15.2875L5.70078 14.8938L5.15703 15.2875L5.36953 14.6438L4.82578 14.25H5.48828L5.70078 13.6188ZM9.50078 13.6188L9.70703 14.2563H10.3758L9.85078 14.65L10.057 15.2875L9.51328 14.8938L8.96953 15.2875L9.17578 14.6438L8.63203 14.25H9.30703L9.50078 13.6188ZM13.3008 13.6188L13.507 14.2563H14.182L13.6383 14.65L13.8445 15.2875L13.3008 14.8938L12.757 15.2875L12.9695 14.6438L12.4195 14.25H13.0883L13.3008 13.6188ZM17.1008 13.6188L17.307 14.2563H17.9758L17.4383 14.65L17.6445 15.2875L17.1008 14.8938L16.557 15.2875L16.7633 14.6438L16.2258 14.25H16.8945L17.1008 13.6188ZM20.9008 13.6188L21.107 14.2563H21.782L21.232 14.65L21.4445 15.2875L20.9008 14.8938L20.357 15.2875L20.5695 14.6438L20.0195 14.25H20.6945L20.9008 13.6188Z" fill="white"/>
</g>
<defs>
<clipPath id="clip0_10008_39447">
<path d="M0 12C0 6.34315 0 3.51472 1.75736 1.75736C3.51472 0 6.34315 0 12 0H28C33.6568 0 36.4853 0 38.2426 1.75736C40 3.51472 40 6.34315 40 12V18C40 23.6569 40 26.4853 38.2426 28.2426C36.4853 30 33.6568 30 28 30H12C6.34315 30 3.51472 30 1.75736 28.2426C0 26.4853 0 23.6569 0 18V12Z" fill="white"/>
</clipPath>
</defs>
</svg>
