<svg width="13" height="18" viewBox="0 0 13 18" fill="none" xmlns="http://www.w3.org/2000/svg">
<path d="M6.36509 9.78199L4.95564 14.5151H12.4553C12.5049 14.5126 12.5544 14.5205 12.6007 14.5384C12.647 14.5557 12.6895 14.5819 12.7258 14.6154C12.7619 14.6498 12.791 14.6908 12.8116 14.7362C12.8335 14.7816 12.8454 14.8312 12.8465 14.8816V15.0053L12.1935 17.2554C12.1655 17.3621 12.1012 17.4558 12.0116 17.5202C11.9229 17.5853 11.8147 17.6181 11.7047 17.6133H0.228364L2.15127 11.0678L0 11.7194L0.488727 10.2198L2.64 9.56671L5.34691 0.359442C5.37622 0.253365 5.44088 0.160479 5.53018 0.0961687C5.61849 0.0310818 5.72598 -0.00269997 5.83564 0.000168725H8.74473C8.79436 -0.00110542 8.84376 0.00729347 8.89018 0.0248963C8.93707 0.0419272 8.98009 0.0681348 9.01673 0.101987C9.05344 0.135803 9.08267 0.176927 9.10255 0.222715C9.1234 0.268445 9.13478 0.317923 9.136 0.368169V0.49326L6.85382 8.25326L9.00655 7.60017L8.54691 9.16235L6.36509 9.78199Z" fill="#FCFCFD"/>
</svg>
