<svg width="32" height="32" viewBox="0 0 32 32" fill="none" xmlns="http://www.w3.org/2000/svg">
<path d="M16 32C24.8366 32 32 24.8366 32 16C32 7.16344 24.8366 0 16 0C7.16344 0 0 7.16344 0 16C0 24.8366 7.16344 32 16 32Z" fill="#49C1BF"/>
<path d="M9 7.281L20.114 12.664L22.959 11.382L11.891 6L9 7.281Z" fill="#FCFCFD"/>
<path d="M20.1133 12.6521L22.9583 11.3711V14.2361L20.1133 15.5171V12.6521ZM20.1133 25.9361V16.9991L22.9583 15.7041V24.6551L20.1133 25.9361Z" fill="white" fill-opacity="0.646"/>
<path d="M9 7.28516V10.1822L16.693 13.9192L9 17.7292V20.5852L20.114 25.9582V23.0842L12.566 19.4132L20.114 15.5322V12.6672L9 7.28516Z" fill="white"/>
</svg>
