<svg width="32" height="32" viewBox="0 0 32 32" fill="none" xmlns="http://www.w3.org/2000/svg">
<g clip-path="url(#clip0_10224_27445)">
<path d="M32 16C32 19.1645 31.0616 22.2579 29.3035 24.8891C27.5454 27.5203 25.0466 29.5711 22.1229 30.7821C19.1993 31.9931 15.9823 32.3099 12.8786 31.6926C9.77487 31.0752 6.92394 29.5514 4.6863 27.3137C2.44866 25.0761 0.924806 22.2251 0.307443 19.1214C-0.309921 16.0177 0.00693248 12.8007 1.21793 9.87707C2.42894 6.95345 4.4797 4.45459 7.11088 2.69649C9.74207 0.938384 12.8355 0 16 0C20.2435 0 24.3131 1.68571 27.3137 4.68629C30.3143 7.68687 32 11.7565 32 16Z" fill="#F7931A"/>
<path fill-rule="evenodd" clip-rule="evenodd" d="M11.3729 7.30511L15.05 8.28983L15.8718 5.22656L17.7104 5.72547L16.9206 8.6622L18.4202 9.06511L19.2115 6.09638L21.082 6.59674L20.2762 9.58147C20.2762 9.58147 23.3308 10.2578 24.0493 12.7422C24.7678 15.2266 22.4697 16.5313 21.7598 16.5807C21.7598 16.5807 24.4362 18.0484 23.5169 20.9357C22.5977 23.8229 19.7758 24.3393 16.8071 23.6775L16.0013 26.7727L14.1308 26.2724L14.9526 23.2251L13.4689 22.8207L12.6471 25.8898L10.7911 25.3909L11.6144 22.3364L7.83984 21.3182L8.79112 19.2062C8.79112 19.2062 9.85584 19.4971 10.2588 19.5931C10.6617 19.6891 10.9206 19.2702 11.034 18.8513C11.1475 18.4324 12.8566 11.4898 13.018 10.9182C13.1795 10.3466 13.114 9.90002 12.4362 9.72402C11.7584 9.54802 10.8362 9.27311 10.8362 9.27311L11.3729 7.30511ZM15.082 16.4993L14.0638 20.5473C14.0638 20.5473 19.1126 22.3698 19.7584 19.8055C20.4042 17.2411 15.082 16.4993 15.082 16.4993ZM15.5504 14.5793L16.5497 10.8702C16.5497 10.8702 20.8726 11.644 20.3402 13.708C19.8078 15.772 17.2595 14.9807 15.5504 14.5793Z" fill="#FCFCFD"/>
</g>
<defs>
<clipPath id="clip0_10224_27445">
<rect width="32" height="32" fill="white"/>
</clipPath>
</defs>
</svg>
